# xmcd CD database file
#
# Track frame offsets:
#	150
#	17343
#	34114
#	51788
#	67038
#	83430
#	98780
#	115966
#	133014
#	145832
#	163163
#	179153
#	196865
#
# Disc length: 3187 seconds
#
# Revision: 0
# Processed by: cddbd v1.5.1PL0 Copyright (c) Steve Scherf et al.
# Submitted via: CDex 1.51
#
DISCID=af0c710d
DTITLE=Cottonbomb - Mississippi Coma
DYEAR=2004
DGENRE=Blues
TTITLE0=Backyard
TTITLE1=The Devil's On The Street
TTITLE2=Cold Hand
TTITLE3=No Way Out Of Here
TTITLE4=I Want To Burn My TV
TTITLE5=One String Of Your Guitar
TTITLE6=Not Their Own
TTITLE7=What Will Remain
TTITLE8=Enter The Door
TTITLE9=Don't Hate Me
TTITLE10=The Blind Guide
TTITLE11=Watch Out
TTITLE12=Roll
EXTD=YEAR: 2004
EXTT0=
EXTT1=
EXTT2=
EXTT3=
EXTT4=
EXTT5=
EXTT6=
EXTT7=
EXTT8=
EXTT9=
EXTT10=
EXTT11=
EXTT12=
PLAYORDER=
